<?xml version="1.0" encoding="utf-8"?>
<!-- Generator: Adobe Illustrator 17.1.0, SVG Export Plug-In . SVG Version: 6.00 Build 0)  -->
<!DOCTYPE svg PUBLIC "-//W3C//DTD SVG 1.1//EN" "http://www.w3.org/Graphics/SVG/1.1/DTD/svg11.dtd">
<svg version="1.1" id="レイヤー_1" xmlns="http://www.w3.org/2000/svg" xmlns:xlink="http://www.w3.org/1999/xlink" x="0px"
	 y="0px" viewBox="0 0 24 24" enable-background="new 0 0 24 24" xml:space="preserve">
<g>
	<linearGradient id="SVGID_1_" gradientUnits="userSpaceOnUse" x1="11.9797" y1="6.443661e-07" x2="11.9797" y2="23.9594">
		<stop  offset="0" style="stop-color:#FBCE3B"/>
		<stop  offset="1" style="stop-color:#EB8121"/>
	</linearGradient>
	<path fill="url(#SVGID_1_)" d="M23.959,18.959c0,2.75-2.25,5-5,5H5c-2.75,0-5-2.25-5-5V5c0-2.75,2.25-5,5-5h13.959
		c2.75,0,5,2.25,5,5V18.959z"/>
</g>
<polygon fill="#F7F2E6" points="13.526,20.286 10.403,20.286 3.348,4.661 7.671,4.661 11.965,14.844 16.258,4.661 20.611,4.661 "/>
<g>
	<defs>
		<path id="SVGID_5_" d="M23.959,19c0,2.75-2.25,5-5,5H5c-2.75,0-5-2.25-5-5V5.041c0-2.75,2.25-5,5-5h13.959c2.75,0,5,2.25,5,5V19z"
			/>
	</defs>
	<clipPath id="SVGID_3_">
		<use xlink:href="#SVGID_5_"  overflow="visible"/>
	</clipPath>
	<rect x="0" y="16.965" clip-path="url(#SVGID_3_)" fill="#0F91A7" width="24" height="6.995"/>
</g>
<g>
	<path fill="#FFFFFF" d="M8.508,18.212v1h-3v1h3v3h-4v-1h3v-1h-3v-3H8.508z"/>
	<path fill="#FFFFFF" d="M9.508,23.212v-5h4v1h-3v1h3v1h-3v1h3v1H9.508z"/>
	<path fill="#FFFFFF" d="M19.508,18.212v5h-1v-4h-1v4h-1v-4h-1v4h-1v-5H19.508z"/>
</g>
</svg>
